# xmcd
#
# Track frame offsets:
#	150
#	17207
#	35096
#	52718
#	67113
#	83606
#	99590
#	121461
#	142890
#	157527
#	179117
#
# Disc length: 2631 seconds
#
# Revision: 0
# Processed by: cddbd v1.5.1PL2 Copyright (c) Steve Scherf et al.
# Submitted via: dBpowerAMP V4.0
#
DISCID=8a0a450b
DTITLE=Aegis - Muling Balikan
DYEAR=2003
DGENRE=Revival
TTITLE0=Dukha
TTITLE1=Bulag,Pipi at Bingi
TTITLE2=Himig ng Pag-ibig
TTITLE3=Laki sa Layaw
TTITLE4=Pagsubok
TTITLE5=Bayan Ko
TTITLE6=Ang Buhay ko
TTITLE7=Lupa
TTITLE8=Panahon
TTITLE9=Baleleng
TTITLE10=Miss na miss kita
EXTD=Eric
EXTT0=
EXTT1=
EXTT2=
EXTT3=
EXTT4=
EXTT5=
EXTT6=
EXTT7=
EXTT8=
EXTT9=
EXTT10=
PLAYORDER=
